<svg width="21" height="16" viewBox="0 0 21 16" fill="none" xmlns="http://www.w3.org/2000/svg">
<path d="M17.4199 4.2199C16.8089 2.8159 15.7544 1.65097 14.418 0.903622C13.0815 0.156272 11.5369 -0.132273 10.0209 0.0822043C8.50477 0.296681 7.10082 1.00235 6.02415 2.09107C4.94747 3.17979 4.25748 4.59151 4.05989 6.10989C3.10648 6.33822 2.27011 6.90873 1.70963 7.71308C1.14914 8.51744 0.903574 9.49962 1.01955 10.4731C1.13553 11.4466 1.60498 12.3436 2.33876 12.9938C3.07253 13.6439 4.01952 14.002 4.99989 13.9999C5.26511 13.9999 5.51946 13.8945 5.707 13.707C5.89453 13.5195 5.99989 13.2651 5.99989 12.9999C5.99989 12.7347 5.89453 12.4803 5.707 12.2928C5.51946 12.1053 5.26511 11.9999 4.99989 11.9999C4.46946 11.9999 3.96075 11.7892 3.58568 11.4141C3.2106 11.039 2.99989 10.5303 2.99989 9.9999C2.99989 9.46946 3.2106 8.96075 3.58568 8.58568C3.96075 8.21061 4.46946 7.9999 4.99989 7.9999C5.26511 7.9999 5.51946 7.89454 5.707 7.707C5.89453 7.51947 5.99989 7.26511 5.99989 6.9999C6.00244 5.81717 6.42418 4.67365 7.19016 3.77248C7.95614 2.87131 9.01678 2.27085 10.1836 2.07777C11.3505 1.88469 12.548 2.1115 13.5635 2.7179C14.5789 3.32431 15.3465 4.27104 15.7299 5.3899C15.7871 5.56174 15.8898 5.71483 16.0272 5.83283C16.1646 5.95083 16.3314 6.02931 16.5099 6.0599C17.176 6.18577 17.7798 6.5335 18.2229 7.04643C18.6661 7.55936 18.9225 8.20725 18.9503 8.88454C18.9781 9.56182 18.7758 10.2286 18.3762 10.7761C17.9766 11.3237 17.4034 11.7198 16.7499 11.8999C16.4926 11.9662 16.2722 12.132 16.1372 12.3608C16.0022 12.5896 15.9636 12.8626 16.0299 13.1199C16.0962 13.3772 16.262 13.5975 16.4908 13.7326C16.7196 13.8676 16.9926 13.9062 17.2499 13.8399C18.3023 13.5618 19.2352 12.9479 19.9069 12.0914C20.5786 11.2348 20.9525 10.1825 20.9717 9.09416C20.991 8.00583 20.6545 6.94094 20.0135 6.06122C19.3724 5.18149 18.4618 4.53499 17.4199 4.2199ZM11.7099 6.2899C11.6148 6.19885 11.5026 6.12749 11.3799 6.0799C11.1364 5.97988 10.8634 5.97988 10.6199 6.0799C10.4971 6.12749 10.385 6.19885 10.2899 6.2899L7.28989 9.2899C7.10159 9.4782 6.9958 9.73359 6.9958 9.9999C6.9958 10.2662 7.10159 10.5216 7.28989 10.7099C7.47819 10.8982 7.73359 11.004 7.99989 11.004C8.26619 11.004 8.52159 10.8982 8.70989 10.7099L9.99989 9.40989V14.9999C9.99989 15.2651 10.1052 15.5195 10.2928 15.707C10.4803 15.8945 10.7347 15.9999 10.9999 15.9999C11.2651 15.9999 11.5195 15.8945 11.707 15.707C11.8945 15.5195 11.9999 15.2651 11.9999 14.9999V9.40989L13.2899 10.7099C13.3829 10.8036 13.4935 10.878 13.6153 10.9288C13.7372 10.9796 13.8679 11.0057 13.9999 11.0057C14.1319 11.0057 14.2626 10.9796 14.3845 10.9288C14.5063 10.878 14.6169 10.8036 14.7099 10.7099C14.8036 10.6169 14.878 10.5063 14.9288 10.3845C14.9796 10.2626 15.0057 10.1319 15.0057 9.9999C15.0057 9.86788 14.9796 9.73718 14.9288 9.61532C14.878 9.49346 14.8036 9.38286 14.7099 9.2899L11.7099 6.2899Z" fill="black"/>
</svg>
