<svg width="18" height="18" viewBox="0 0 18 18" fill="none" xmlns="http://www.w3.org/2000/svg">
<path d="M15.54 6.00027L5.87997 0.46027C5.35725 0.15843 4.76397 0.000308135 4.16036 0.00196603C3.55676 0.00362392 2.96435 0.165002 2.4433 0.469709C1.92225 0.774417 1.49112 1.2116 1.19372 1.73685C0.896306 2.2621 0.743208 2.8567 0.749971 3.46027V14.5803C0.749971 15.4873 1.11029 16.3572 1.75167 16.9986C2.39304 17.6399 3.26293 18.0003 4.16997 18.0003C4.77041 17.9993 5.36006 17.8406 5.87997 17.5403L15.54 12.0003C16.059 11.6999 16.49 11.2682 16.7896 10.7487C17.0891 10.2292 17.2468 9.63999 17.2468 9.04027C17.2468 8.44055 17.0891 7.85137 16.7896 7.33183C16.49 6.8123 16.059 6.38068 15.54 6.08027V6.00027ZM14.54 10.1903L4.87997 15.8103C4.66346 15.933 4.41884 15.9975 4.16997 15.9975C3.9211 15.9975 3.67648 15.933 3.45997 15.8103C3.24407 15.6856 3.06479 15.5063 2.94015 15.2904C2.81552 15.0745 2.74993 14.8296 2.74997 14.5803V3.42027C2.74993 3.17097 2.81552 2.92605 2.94015 2.71013C3.06479 2.49422 3.24407 2.31492 3.45997 2.19027C3.67738 2.06943 3.92127 2.00416 4.16997 2.00027C4.4185 2.00537 4.66211 2.07056 4.87997 2.19027L14.54 7.77027C14.756 7.89487 14.9353 8.07414 15.06 8.29006C15.1847 8.50598 15.2504 8.75093 15.2504 9.00027C15.2504 9.24961 15.1847 9.49456 15.06 9.71048C14.9353 9.9264 14.756 10.1057 14.54 10.2303V10.1903Z" fill="black"/>
</svg>
